<?xml version="1.0" encoding="UTF-8"?>
<svg xmlns="http://www.w3.org/2000/svg" xmlns:xlink="http://www.w3.org/1999/xlink" width="178.07pt" height="178.07pt" viewBox="0 0 178.07 178.07" version="1.1">
<g id="surface1">
<path style=" stroke:none;fill-rule:nonzero;fill:rgb(13.699341%,12.199402%,12.5%);fill-opacity:1;" d="M 89.035156 178.070313 C 138.210938 178.070313 178.074219 138.207031 178.074219 89.035156 C 178.074219 39.863281 138.210938 0 89.035156 0 C 39.863281 0 0 39.863281 0 89.035156 C 0 138.207031 39.863281 178.070313 89.035156 178.070313 "/>
<path style=" stroke:none;fill-rule:nonzero;fill:rgb(100%,100%,100%);fill-opacity:1;" d="M 30.410156 53.535156 L 29.957031 53.496094 L 29.839844 54.597656 L 29.722656 55.25 L 29.839844 55.445313 L 29.898438 55.859375 L 29.976563 56.15625 L 29.800781 56.804688 L 29.761719 57.335938 L 29.679688 57.851563 L 30.074219 58.382813 L 30.214844 58.894531 L 30.195313 59.328125 L 30.371094 59.839844 L 30.292969 60.136719 L 30.351563 60.648438 L 30.527344 61.121094 L 30.589844 61.296875 L 30.6875 61.671875 L 30.511719 61.929688 L 30.429688 62.027344 L 30.511719 62.085938 L 30.726563 62.222656 L 30.785156 62.242188 L 31.179688 62.5 L 31.535156 63.128906 L 31.847656 63.78125 L 31.925781 63.996094 L 31.910156 64.273438 L 32.027344 64.351563 L 32.125 64.726563 L 32.300781 65 L 32.617188 65.101563 L 32.757813 65.316406 L 32.875 65.476563 L 32.914063 65.828125 L 32.855469 66.007813 C 32.855469 66.007813 33.03125 66.28125 33.089844 66.300781 C 33.148438 66.320313 33.269531 66.480469 33.269531 66.480469 L 33.328125 66.558594 L 33.328125 66.796875 L 33.5625 67.445313 L 33.859375 67.621094 L 34.175781 67.722656 L 34.292969 67.839844 L 34.648438 67.742188 L 35.003906 67.640625 L 35.613281 68.132813 L 36.300781 68.234375 L 37.128906 68.566406 L 37.738281 69.101563 L 38.09375 69.671875 L 38.351563 69.886719 L 38.878906 70.789063 L 39.316406 70.835938 L 39.515625 71.207031 L 39.316406 71.542969 L 38.941406 71.621094 L 37.011719 71.621094 L 36.675781 71.722656 L 36.441406 72.605469 L 36.636719 72.882813 L 36.855469 73.238281 L 37.445313 73.414063 L 37.523438 73.652344 L 37.5625 74.085938 L 37.839844 74.300781 L 38.054688 74.320313 L 38.273438 74.519531 L 38.3125 74.753906 L 37.996094 75.304688 L 38.074219 75.621094 L 37.878906 76.132813 L 37.601563 76.234375 L 37.523438 76.726563 L 37.859375 77.097656 L 38.234375 76.960938 L 38.667969 76.449219 L 39 76.214844 L 39.53125 76.3125 L 39.75 76.488281 L 39.984375 76.921875 L 40.085938 77.59375 L 40.105469 77.925781 L 40.242188 77.964844 L 40.421875 77.964844 L 40.714844 76.566406 L 41.03125 76.054688 L 41.335938 76.296875 L 41.601563 76.390625 L 41.820313 76.824219 L 41.917969 77.296875 L 42.3125 77.75 L 42.746094 77.691406 L 43.039063 77.375 L 43.433594 76.902344 L 44.085938 76.46875 L 45.246094 76.566406 L 45.898438 76.902344 L 45.996094 77.238281 L 45.757813 77.671875 L 45.328125 77.964844 L 45.011719 78.300781 L 44.851563 78.914063 L 44.222656 79.328125 L 43.984375 79.71875 L 43.710938 80.054688 L 43.613281 80.351563 L 43.335938 80.84375 L 44.007813 80.902344 L 44.539063 81.140625 L 44.832031 82.085938 L 45.167969 82.398438 L 45.464844 82.636719 L 45.9375 82.734375 L 46.332031 83.089844 L 46.351563 83.800781 L 45.9375 84.191406 L 45.523438 84.507813 L 45.523438 85.117188 L 45.246094 85.570313 L 44.539063 86.085938 L 43.925781 86.320313 L 43.671875 86.992188 L 43.511719 87.621094 L 43.097656 88.390625 L 42.84375 90.003906 L 43.039063 90.398438 L 42.960938 91.207031 L 42.804688 92.46875 L 42.882813 92.902344 L 42.824219 93.175781 L 41.699219 93.691406 L 41.523438 93.925781 L 41.484375 94.773438 L 41.660156 95.109375 L 41.5625 95.382813 L 41.542969 95.738281 L 41.699219 96.152344 L 41.820313 96.410156 L 41.9375 96.941406 L 42.152344 97.6875 L 42.566406 98.261719 L 43.082031 98.554688 L 43.21875 98.871094 L 43.335938 99.109375 L 43.96875 98.773438 L 44.675781 98.734375 L 44.910156 98.675781 L 45.246094 98.535156 L 45.5625 98.125 L 45.601563 97.710938 L 45.859375 97.570313 L 46.3125 97.550781 L 46.546875 97.867188 L 46.6875 97.964844 L 47.039063 97.726563 L 47.414063 97.097656 L 47.730469 97.019531 L 48.105469 97.058594 L 48.417969 97.15625 L 48.714844 96.78125 L 49.050781 96.507813 L 49.425781 96.488281 L 49.917969 96.683594 L 50.015625 97.097656 L 50.171875 97.609375 L 50.332031 98.339844 L 50.191406 98.675781 L 49.917969 98.96875 L 49.71875 99.542969 L 49.757813 99.835938 L 49.777344 100.074219 L 49.976563 100.269531 L 50.371094 100.484375 L 50.585938 100.859375 L 50.644531 101.117188 L 50.449219 101.6875 L 50.152344 102.121094 L 49.796875 102.339844 L 49.699219 102.652344 L 49.640625 103.246094 L 49.820313 103.71875 L 49.9375 104.328125 L 49.820313 104.960938 L 49.898438 105.335938 L 50.152344 105.824219 L 51.058594 107.71875 L 51.078125 108.230469 L 51.296875 108.742188 L 52.320313 110.613281 L 52.65625 111.007813 L 52.753906 111.285156 L 52.734375 112.367188 L 52.675781 113.15625 L 52.96875 113.371094 L 53.421875 113.214844 L 54.171875 112.859375 L 54.683594 112.800781 L 55.375 112.898438 L 55.828125 112.957031 L 55.984375 113.214844 L 56.085938 113.410156 L 56.101563 113.765625 L 58.941406 115.738281 L 59.667969 115.875 L 60.753906 116.289063 L 62.820313 116.917969 L 63.214844 117.136719 L 63.257813 117.390625 L 63.394531 117.429688 L 63.609375 117.390625 L 64.4375 117.746094 L 64.890625 118.042969 L 66.507813 118.238281 L 67.117188 118.316406 L 67.84375 117.824219 L 68.832031 117.609375 L 70.449219 116.761719 L 71.019531 116.644531 L 71.511719 117.039063 L 72.636719 117.648438 L 73.421875 117.925781 L 73.933594 117.332031 L 74.449219 116.269531 L 74.902344 115.953125 L 75.550781 115.875 L 76.417969 115.695313 L 77.183594 115.460938 L 77.816406 115.597656 L 78.742188 116.347656 L 83.234375 117.214844 L 84.238281 117.195313 L 86.03125 117.765625 L 87.253906 118.792969 L 89.578125 119.519531 L 90.542969 119.636719 L 90.996094 119.046875 L 92.472656 119.144531 L 92.890625 117.726563 L 93.402344 117.589844 L 93.894531 117.824219 L 94.128906 118.316406 L 94.738281 119.242188 L 95.53125 121.015625 L 95.449219 121.46875 L 95.765625 121.765625 L 95.863281 122.515625 L 95.664063 122.96875 L 95.09375 123.261719 L 95.84375 123.382813 L 96.0625 123.539063 L 96.082031 123.933594 L 95.84375 124.367188 L 95.707031 125.097656 L 95.292969 125.449219 L 95.214844 125.589844 L 95.46875 126.394531 L 95.410156 126.710938 L 95.234375 126.945313 L 95.078125 127.222656 L 95.09375 127.359375 L 94.859375 127.773438 L 94.601563 128.109375 L 94.445313 128.308594 L 94.152344 128.445313 L 93.617188 128.640625 L 93.207031 128.777344 L 93.222656 128.976563 L 93.207031 129.605469 L 93.144531 130.117188 L 92.867188 130.691406 L 92.808594 131.242188 L 92.847656 131.476563 L 92.859375 132.046875 L 92.75 132.523438 L 92.632813 132.898438 L 92.769531 133.152344 L 93.085938 133.742188 L 93.242188 133.863281 L 93.835938 133.941406 L 94.582031 134.15625 L 94.957031 134.355469 L 95.3125 134.628906 L 95.546875 134.847656 L 95.882813 134.964844 L 96.59375 135.042969 L 97.242188 134.90625 L 97.5 134.90625 L 98.40625 134.769531 C 98.40625 134.769531 99.3125 134.847656 99.371094 134.867188 C 99.429688 134.886719 100.0625 135.023438 100.0625 135.023438 L 100.671875 134.925781 L 101.359375 134.964844 L 101.757813 135.199219 L 102.148438 135.496094 C 102.148438 135.496094 103.214844 136.066406 103.289063 136.066406 C 103.371094 136.066406 104.90625 136.324219 104.90625 136.324219 L 105.421875 136.402344 L 106.402344 136.027344 L 107.09375 136.027344 L 107.6875 136.285156 L 108.492188 136.699219 L 108.90625 136.679688 L 109.164063 136.265625 L 109.617188 135.773438 L 109.894531 135.597656 L 110.207031 135.4375 L 111.136719 135.199219 L 111.683594 134.867188 L 112.335938 134.726563 L 112.847656 134.628906 L 113.125 134.6875 L 113.480469 134.984375 L 113.890625 135.417969 L 114.050781 135.496094 L 114.324219 135.496094 L 114.738281 135.183594 L 114.953125 135.101563 L 115.230469 135.125 L 115.429688 135.140625 L 115.703125 135.160156 L 116.316406 135.339844 L 116.730469 135.652344 L 117.023438 135.851563 L 117.28125 135.8125 L 117.574219 135.613281 L 117.871094 135.339844 L 118.109375 135.082031 L 118.402344 134.847656 L 118.839844 134.785156 L 119.230469 134.433594 L 119.449219 134.136719 L 119.742188 133.921875 L 120.195313 133.863281 L 120.414063 133.863281 L 120.984375 133.546875 L 121.28125 133.332031 L 121.714844 133.113281 L 122.167969 132.859375 L 122.441406 132.839844 L 122.839844 132.800781 L 123.171875 132.464844 L 123.507813 132.246094 L 123.902344 131.992188 L 124.257813 131.832031 L 124.53125 131.8125 L 124.925781 131.675781 L 125.222656 131.378906 L 125.535156 131.125 L 125.832031 131.085938 L 126.34375 130.984375 L 126.914063 130.671875 L 127.546875 130 L 127.84375 129.625 L 128.53125 128.816406 L 129.359375 127.558594 L 129.730469 127.222656 L 129.832031 127.085938 L 129.890625 126.53125 L 129.574219 124.9375 L 129.636719 124.523438 L 129.730469 124.269531 L 130.050781 124.011719 L 130.464844 123.933594 L 130.992188 123.972656 L 131.191406 124.03125 L 131.390625 124.03125 L 131.960938 123.835938 L 132.355469 123.441406 L 132.453125 122.554688 L 132.394531 122.019531 L 132.453125 121.449219 L 132.886719 120.742188 L 133.59375 120.070313 L 134.144531 119.519531 L 134.128906 118.199219 L 134.578125 117.273438 L 134.855469 116.683594 L 135.820313 115.125 L 136.863281 114.671875 L 137.574219 114.140625 L 137.910156 113.433594 L 138.242188 113.273438 L 138.933594 113.019531 L 139.429688 112.839844 L 139.960938 112.503906 L 140.3125 110.394531 L 140.15625 109.964844 L 139.664063 109.058594 L 139.148438 107.734375 L 139.328125 107.226563 L 140.058594 106.753906 L 140.410156 106.417969 L 140.847656 105.609375 L 141.457031 104.980469 L 141.910156 104.328125 L 143.507813 103.324219 L 144.6875 102.929688 L 144.726563 102.691406 L 144.371094 102.238281 L 144.214844 101.195313 L 144.785156 100.445313 L 144.53125 98.773438 L 144.765625 97.90625 L 145.535156 96.960938 L 145.988281 96.347656 L 146.226563 95.503906 L 146.085938 95.246094 L 145.730469 94.988281 L 145.082031 94.832031 L 144.6875 94.890625 L 144.097656 94.773438 L 143.46875 94.613281 L 143.09375 94.121094 L 142.835938 93.75 L 142.757813 92.980469 L 143.03125 91.382813 L 143.015625 90.675781 L 142.734375 90.042969 L 142.539063 88.746094 L 142.695313 88.3125 L 143.308594 87.660156 L 143.859375 87.464844 L 144.234375 87.324219 L 144.351563 86.183594 L 144.019531 85.769531 L 143.5625 85.277344 L 143.585938 84.882813 L 143.523438 84.664063 L 142.757813 84.171875 L 142.324219 83.503906 L 142.28125 82.417969 L 142.402344 82.144531 L 142.460938 81.925781 L 142.402344 81.75 L 142.085938 81.570313 L 141.691406 81.53125 L 141.4375 81.59375 L 141.042969 81.511719 L 140.707031 81.414063 L 140.195313 81.257813 L 139.5625 80.941406 L 139.148438 80.664063 L 138.777344 80.234375 L 138.105469 79.328125 L 137.496094 78.773438 L 136.863281 78.378906 L 136.355469 78.320313 L 136.097656 78.417969 L 135.859375 78.417969 L 135.585938 78.398438 L 135.367188 78.28125 L 134.992188 77.847656 L 134.285156 77.257813 L 133.792969 76.488281 L 133.636719 75.246094 L 133.8125 74.441406 L 134.265625 73.847656 L 134.601563 72.84375 L 134.601563 71.722656 L 134.914063 71.109375 L 135.546875 70.359375 L 136.078125 70.164063 L 136.117188 69.96875 L 135.78125 69.492188 L 135.445313 68.253906 L 135.03125 66.597656 L 134.738281 64.902344 L 134.421875 64.292969 L 134.246094 64.136719 L 134.050781 63.859375 L 133.59375 61.789063 L 133.199219 61.257813 L 133.121094 60.292969 L 132.964844 59.40625 L 132.984375 58.71875 L 133.179688 58.027344 L 133.613281 57.949219 L 133.753906 57.496094 L 133.714844 57.003906 L 133.730469 56.488281 L 133.832031 56.15625 L 133.929688 55.78125 L 134.007813 55.445313 L 133.769531 54.972656 L 133.003906 53.890625 L 132.136719 52.964844 L 131.585938 52.707031 L 130.105469 52.332031 L 129.238281 52.925781 L 128.886719 53.042969 L 128.570313 52.945313 L 128.15625 52.195313 L 127.980469 51.859375 L 127.683594 51.820313 L 127.46875 52.097656 L 127.191406 52.472656 L 126.9375 52.472656 L 126.640625 52.410156 L 126.441406 52.273438 L 126.148438 51.878906 L 125.988281 51.191406 L 125.871094 50.914063 L 125.515625 50.992188 L 125.199219 51.171875 L 124.964844 51.070313 L 124.648438 50.933594 L 123.902344 50.480469 L 123.46875 50.480469 L 122.996094 50.460938 L 122.503906 50.144531 L 122.050781 49.832031 L 120.886719 49.792969 L 120.117188 49.574219 L 118.996094 49.515625 L 118.464844 49.613281 L 118.34375 49.8125 L 118.027344 50.144531 L 117.613281 50.558594 L 117.199219 50.660156 L 116.925781 50.796875 L 116.511719 50.796875 L 116.078125 50.777344 L 115.980469 50.539063 L 115.921875 50.125 L 115.585938 49.671875 L 115.328125 49.238281 L 115.46875 48.667969 L 115.546875 48.355469 L 114.894531 47.054688 L 114.796875 46.578125 L 114.777344 46.046875 L 114.425781 45.59375 L 113.539063 45.398438 L 112.789063 45.457031 L 111.824219 45.121094 L 110.5625 45.121094 L 109.8125 45.300781 L 109.617188 45.476563 L 109.125 45.554688 L 108.554688 45.515625 L 107.566406 45.316406 L 107.214844 45.300781 L 106.878906 45.398438 L 106.484375 45.300781 L 106.109375 45.101563 L 105.4375 45.0625 L 104.96875 44.945313 L 104.492188 44.371094 L 103.6875 43.980469 L 102.761719 43.210938 L 102.226563 42.855469 L 100.867188 42.148438 L 100.433594 41.753906 L 98.839844 41.21875 L 97.933594 40.707031 L 96.847656 40.765625 L 96.457031 41.121094 L 96.179688 41.242188 L 95.707031 41.339844 L 95.46875 41.261719 L 94.40625 40.886719 L 93.636719 40.777344 L 92.730469 40.472656 L 92.121094 40.707031 L 91.6875 40.746094 L 91.214844 40.453125 L 90.585938 40.550781 L 89.835938 40.746094 L 88.632813 40.589844 L 87.648438 40.433594 L 86.878906 40.195313 L 86.03125 39.960938 L 85.402344 39.742188 L 84.929688 39.605469 L 84.515625 39.742188 L 84.179688 40.058594 L 83.707031 40.335938 L 83.410156 40.550781 L 83.136719 40.746094 L 82.820313 40.945313 L 82.503906 41.140625 L 81.757813 41.320313 L 80.753906 41.496094 L 79.628906 41.753906 L 78.386719 42.046875 L 77.777344 42.519531 L 77.582031 42.757813 L 77.207031 43.328125 L 76.890625 43.445313 L 76.59375 43.761719 L 76.339844 44.136719 L 76.121094 44.371094 L 76.0625 44.667969 L 76.003906 45.003906 L 76.003906 45.378906 L 75.90625 45.652344 L 75.726563 45.871094 L 75.550781 46.085938 L 75.277344 46.324219 L 74.960938 46.578125 L 74.703125 46.738281 L 74.449219 46.972656 L 74.171875 47.230469 L 73.894531 47.484375 L 73.617188 47.898438 L 73.304688 48.117188 L 73.007813 48.371094 L 72.714844 48.570313 L 72.238281 48.847656 L 71.984375 48.964844 L 71.804688 49.160156 L 71.746094 49.316406 L 71.648438 49.574219 L 71.550781 49.871094 L 71.492188 50.226563 L 71.472656 50.597656 L 71.410156 51.011719 L 71.351563 51.40625 L 71.335938 51.9375 L 71.273438 52.273438 L 71.273438 52.589844 L 71.234375 52.90625 L 71.019531 53.042969 L 70.554688 53.160156 L 70.171875 53.316406 L 69.855469 53.515625 L 69.523438 53.828125 L 69.324219 54.125 L 69.167969 54.441406 L 69.167969 54.734375 L 69.285156 54.894531 L 69.382813 55.03125 L 69.480469 55.148438 L 69.597656 55.269531 L 69.78125 55.464844 L 69.957031 55.644531 L 70.210938 55.917969 L 70.347656 56.234375 L 70.367188 56.429688 L 70.328125 56.648438 L 70.191406 56.925781 L 69.816406 57.355469 L 69.582031 57.851563 L 69.640625 57.871094 L 69.679688 58.007813 L 69.816406 58.222656 L 69.957031 58.402344 L 70.09375 58.578125 L 70.074219 58.757813 L 69.972656 59.25 L 69.738281 59.621094 L 69.597656 59.957031 L 69.480469 60.292969 L 69.382813 60.527344 L 69.34375 60.667969 L 69.246094 60.964844 L 69.148438 61.296875 L 69.128906 61.535156 L 69.089844 61.929688 L 68.871094 62.675781 L 68.476563 63.308594 L 68.417969 63.699219 L 68.4375 64.429688 L 68.613281 65.121094 L 68.496094 65.476563 L 68.378906 65.96875 L 68.398438 66.421875 L 68.320313 66.636719 L 68.179688 66.894531 L 67.84375 67.070313 L 67.472656 67.207031 L 67.175781 67.445313 L 66.882813 67.621094 L 66.585938 67.859375 L 66.269531 68.09375 L 65.914063 68.390625 L 65.539063 68.46875 L 65.105469 68.566406 L 64.613281 68.566406 L 64.121094 68.726563 L 63.609375 68.785156 L 63.257813 68.746094 L 62.347656 68.707031 L 61.757813 68.707031 L 60.96875 68.902344 L 60.082031 69.121094 L 58.960938 69.296875 L 57.679688 69.75 L 56.792969 70.085938 L 56.101563 70.480469 L 55.375 70.636719 L 54.449219 70.835938 L 53.855469 71.070313 L 52.578125 71.445313 L 52.300781 71.03125 L 51.90625 70.320313 L 51.078125 70.125 L 50.644531 69.710938 L 50.054688 69.238281 L 49.757813 68.726563 L 49.246094 68.46875 L 48.359375 67.957031 L 47.886719 67.660156 L 47.472656 67.699219 L 47.058594 67.464844 L 46.527344 67.269531 L 45.839844 66.992188 L 44.851563 66.597656 L 44.183594 66.242188 L 43.730469 65.988281 L 43.472656 65.828125 L 42.882813 65.769531 L 42.566406 65.59375 L 42.191406 65.453125 L 41.796875 65.179688 L 41.304688 64.921875 L 40.835938 64.726563 L 40.378906 64.390625 L 39.671875 63.699219 L 39 63.386719 L 38.46875 63.109375 L 37.703125 62.65625 L 37.109375 62.242188 L 36.578125 61.769531 L 36.183594 61.375 L 35.730469 60.824219 L 35.414063 60.707031 L 35.039063 60.804688 L 34.707031 60.707031 L 34.234375 60.511719 L 33.78125 60.074219 L 33.285156 59.40625 L 32.816406 58.695313 L 32.5 58.265625 L 32.324219 58.265625 L 32.203125 58.382813 L 32.105469 58.460938 L 31.988281 58.578125 L 31.828125 58.65625 L 31.574219 58.65625 L 31.238281 58.675781 L 31.042969 58.636719 L 30.84375 58.203125 L 30.765625 57.8125 L 30.902344 57.496094 L 31.003906 57.4375 L 30.863281 57.179688 L 30.921875 56.902344 L 31.082031 56.746094 L 31.277344 56.6875 L 31.296875 56.511719 L 31.023438 56.195313 L 30.6875 55.878906 L 30.410156 55.566406 L 30.253906 55.191406 L 30.253906 54.695313 L 30.332031 53.789063 L 30.410156 53.535156 "/>
</g>
</svg>
