<?xml version="1.0" standalone="no"?>
<!DOCTYPE svg PUBLIC "-//W3C//DTD SVG 20010904//EN"
 "http://www.w3.org/TR/2001/REC-SVG-20010904/DTD/svg10.dtd">
<svg version="1.0" xmlns="http://www.w3.org/2000/svg"
 width="700.000000pt" height="700.000000pt" viewBox="0 0 700.000000 700.000000"
 preserveAspectRatio="xMidYMid meet">
<metadata>
Created by potrace 1.14, written by Peter Selinger 2001-2017
</metadata>
<g transform="translate(0.000000,700.000000) scale(0.100000,-0.100000)"
fill="#000000" stroke="none">
<path d="M3215 6994 c-790 -78 -1461 -365 -2035 -870 -569 -501 -967 -1190
-1114 -1929 -54 -276 -61 -347 -61 -695 0 -348 7 -419 61 -695 198 -995 833
-1864 1731 -2366 381 -214 782 -346 1258 -416 152 -22 706 -25 855 -5 718 99
1317 359 1845 801 604 507 1026 1218 1179 1986 54 276 61 347 61 695 0 348 -7
419 -61 695 -179 902 -718 1703 -1495 2223 -437 292 -940 481 -1484 558 -114
16 -633 28 -740 18z m204 -1579 c32 -8 100 -15 151 -16 51 0 117 -7 146 -15
45 -11 58 -11 87 1 31 13 39 12 88 -8 64 -27 104 -51 213 -128 l48 -34 163 -1
c170 0 195 -6 195 -44 0 -10 6 -30 14 -45 8 -15 12 -34 9 -42 -3 -8 3 -30 13
-49 23 -42 50 -44 94 -8 28 24 36 26 88 20 31 -4 71 -13 87 -20 42 -19 98 -36
118 -36 9 0 17 -6 17 -13 0 -8 9 -22 20 -32 19 -17 21 -17 40 0 19 17 20 17
31 -9 14 -30 26 -32 55 -11 33 22 86 3 129 -48 34 -40 36 -44 29 -96 -4 -31
-13 -62 -21 -70 -11 -10 -13 -26 -8 -60 7 -52 32 -133 51 -171 6 -14 22 -65
33 -113 11 -48 26 -97 31 -108 8 -13 7 -19 -1 -19 -19 0 -48 -44 -49 -75 0
-17 -9 -47 -20 -68 -34 -62 -25 -108 32 -159 23 -21 37 -26 55 -22 20 6 33 -3
76 -49 52 -56 88 -77 133 -77 21 0 24 -4 24 -40 0 -31 6 -47 25 -64 14 -13 25
-28 25 -33 0 -6 7 -16 15 -23 25 -21 17 -53 -18 -75 -28 -18 -32 -25 -29 -60
1 -22 2 -73 2 -112 0 -83 18 -113 69 -113 70 0 78 -27 30 -93 -26 -35 -30 -49
-26 -85 2 -23 0 -45 -5 -48 -6 -4 -8 -25 -5 -48 5 -41 5 -41 -42 -63 -33 -16
-63 -42 -94 -83 -26 -33 -51 -60 -57 -60 -16 0 -11 -38 11 -82 16 -32 19 -51
14 -85 -6 -40 -11 -46 -43 -60 -20 -8 -46 -26 -57 -39 -11 -14 -31 -30 -45
-37 -32 -16 -90 -113 -90 -150 0 -20 -12 -43 -35 -68 -27 -30 -35 -48 -35 -77
0 -46 -14 -62 -56 -62 -44 0 -57 -19 -49 -74 6 -39 4 -49 -21 -83 -38 -51
-106 -123 -118 -123 -8 0 -78 -32 -126 -58 -64 -35 -101 -52 -113 -52 -8 0
-22 -9 -32 -20 -10 -11 -23 -20 -30 -20 -7 0 -20 -9 -30 -20 -16 -18 -19 -18
-41 -3 -18 11 -37 14 -69 10 -26 -4 -45 -3 -45 3 0 35 -120 9 -171 -37 -25
-23 -27 -23 -63 -8 -29 12 -45 14 -69 6 -40 -13 -104 -1 -150 28 -31 19 -50
22 -143 22 -86 0 -114 4 -143 20 -20 10 -44 19 -53 19 -22 0 -32 37 -24 87 15
103 18 111 40 117 26 6 69 77 60 100 -3 9 -2 22 4 29 13 17 26 77 15 77 -4 0
-8 20 -8 44 0 30 -11 64 -36 112 -42 80 -70 95 -87 45 -9 -25 -17 -31 -39 -31
-16 0 -34 -5 -40 -11 -15 -15 -116 15 -157 46 -34 26 -72 36 -214 59 -56 9
-101 21 -112 31 -16 14 -30 16 -80 10 -57 -7 -63 -10 -86 -46 -13 -21 -27 -39
-30 -39 -4 0 -27 11 -53 25 l-47 26 -75 -34 c-64 -29 -81 -33 -120 -28 -24 4
-62 17 -84 29 -22 12 -76 33 -119 47 -81 26 -129 55 -179 108 -28 30 -61 33
-109 12 -15 -6 -18 -2 -18 26 0 19 -15 66 -34 104 -83 169 -106 266 -71 301
19 20 20 63 0 70 -18 7 -20 45 -4 61 16 16 2 82 -18 90 -9 3 -24 1 -34 -5 -10
-7 -28 -12 -39 -12 -10 0 -25 -10 -31 -22 -8 -14 -14 -18 -17 -10 -6 18 -30
14 -42 -8 -6 -10 -26 -24 -46 -29 -32 -9 -38 -7 -60 16 -28 30 -44 81 -44 139
0 36 3 43 25 48 23 6 25 11 26 64 1 31 0 68 -1 80 -2 31 39 142 53 142 17 0
47 32 47 49 0 9 9 22 20 29 28 17 25 37 -11 62 -17 13 -34 33 -39 46 -6 14
-18 24 -29 24 -26 0 -17 34 15 59 13 10 24 23 24 28 0 6 9 18 20 28 27 25 25
44 -6 55 -38 15 -49 13 -84 -16 -33 -28 -36 -27 -54 8 -17 33 -39 28 -52 -11
l-11 -34 -6 30 c-7 36 -33 49 -57 28 -27 -25 -55 -15 -31 10 5 6 12 24 15 41
5 24 3 33 -8 37 -9 4 -16 13 -16 21 0 7 -9 16 -20 19 -14 3 -20 14 -20 31 0
25 3 26 54 26 39 0 55 4 60 15 3 9 0 18 -8 21 -7 3 -28 25 -45 49 -22 30 -41
46 -64 50 -17 4 -36 11 -42 15 -5 5 -23 10 -40 12 -24 2 -32 10 -45 45 -8 22
-22 49 -31 60 -9 10 -19 29 -22 43 -4 14 -16 36 -29 49 -12 14 -23 32 -23 40
-6 66 -18 132 -25 136 -4 3 -6 42 -4 87 4 84 14 121 14 53 0 -26 7 -46 22 -62
12 -13 16 -23 9 -23 -8 0 -11 -13 -9 -37 3 -35 5 -38 35 -38 25 0 39 -9 68
-42 22 -26 45 -43 58 -43 12 0 37 -15 57 -34 19 -19 60 -50 91 -68 31 -18 73
-44 95 -58 40 -26 92 -49 226 -101 44 -17 95 -47 121 -70 25 -21 50 -39 55
-39 6 0 19 -12 29 -26 l19 -25 69 19 c39 11 87 27 108 36 59 26 163 47 248 51
69 3 85 7 137 40 51 31 60 42 65 72 3 19 4 47 1 62 -3 14 2 39 10 56 9 17 16
38 16 48 0 10 9 40 21 67 16 37 18 53 10 68 -8 16 -7 27 6 50 17 29 16 30 -10
61 -31 38 -24 64 21 84 15 6 29 13 32 14 2 2 7 34 11 70 5 54 12 71 30 86 87
70 149 133 149 153 0 13 20 43 48 72 44 46 53 50 121 62 49 9 89 24 124 47 29
18 58 31 65 28 7 -3 39 -11 71 -20z"/>
</g>
</svg>
