<svg
  display="none"
  width="0"
  height="0"
  version="1.1"
  xmlns="http://www.w3.org/2000/svg"
  xmlns:xlink="http://www.w3.org/1999/xlink"
>
  <defs>
    <symbol viewBox="0 0 18 18" id="icon-add">
      <path
        d="M14.5,8H10V3.5A.5.5,0,0,0,9.5,3h-1a.5.5,0,0,0-.5.5V8H3.5a.5.5,0,0,0-.5.5v1a.5.5,0,0,0,.5.5H8v4.5a.5.5,0,0,0,.5.5h1a.5.5,0,0,0,.5-.5V10h4.5a.5.5,0,0,0,.5-.5v-1A.5.5,0,0,0,14.5,8Z"
      />
    </symbol>
    <symbol viewBox="0 0 22 22" id="icon-calendar">
      <rect height="2" rx="0.5" ry="0.5" width="2" x="8.5" y="8" />
      <rect height="2" rx="0.5" ry="0.5" width="2" x="11.5" y="8" />
      <rect height="2" rx="0.5" ry="0.5" width="2" x="14.5" y="8" />
      <rect height="2" rx="0.5" ry="0.5" width="2" x="5.5" y="11" />
      <rect height="2" rx="0.5" ry="0.5" width="2" x="8.5" y="11" />
      <rect height="2" rx="0.5" ry="0.5" width="2" x="11.5" y="11" />
      <rect height="2" rx="0.5" ry="0.5" width="2" x="14.5" y="11" />
      <rect height="2" rx="0.5" ry="0.5" width="2" x="5.5" y="14" />
      <rect height="2" rx="0.5" ry="0.5" width="2" x="8.5" y="14" />
      <rect height="2" rx="0.5" ry="0.5" width="2" x="11.5" y="14" />
      <rect height="2" rx="0.5" ry="0.5" width="2" x="14.5" y="14" />
      <path
        d="M19.5,3.5h-3V2a.5.5,0,0,0-.5-.5H15a.5.5,0,0,0-.5.5V3.5h-7V2A.5.5,0,0,0,7,1.5H6a.5.5,0,0,0-.5.5V3.5h-3A.5.5,0,0,0,2,4V19a.5.5,0,0,0,.5.5h17A.5.5,0,0,0,20,19V4A.5.5,0,0,0,19.5,3.5ZM18.5,18H3.5V5h2V6a.5.5,0,0,0,.5.5H7A.5.5,0,0,0,7.5,6V5h7V6a.5.5,0,0,0,.5.5h1a.5.5,0,0,0,.5-.5V5h2Z"
      />
    </symbol>
    <symbol viewBox="0 0 16 16" id="icon-chevron-down">
      <path
        fillRule="evenodd"
        d="M1.646 4.646a.5.5 0 0 1 .708 0L8 10.293l5.646-5.647a.5.5 0 0 1 .708.708l-6 6a.5.5 0 0 1-.708 0l-6-6a.5.5 0 0 1 0-.708z"
      />
    </symbol>
    <symbol viewBox="0 0 16 16" id="icon-chevron-up">
      <path
        fillRule="evenodd"
        d="M7.646 4.646a.5.5 0 0 1 .708 0l6 6a.5.5 0 0 1-.708.708L8 5.707l-5.646 5.647a.5.5 0 0 1-.708-.708l6-6z"
      />
    </symbol>
    <symbol viewBox="0 0 16 16" id="icon-chevron-right">
      <path
        d="M4.646 1.646a.5.5 0 0 1 .708 0l6 6a.5.5 0 0 1 0 .708l-6 6a.5.5 0 0 1-.708-.708L10.293 8 4.646 2.354a.5.5 0 0 1 0-.708z"
      />
    </symbol>
    <symbol viewBox="0 0 16 16" id="icon-chevron-left">
      <path
        fillRule="evenodd"
        d="M11.354 1.646a.5.5 0 0 1 0 .708L5.707 8l5.647 5.646a.5.5 0 0 1-.708.708l-6-6a.5.5 0 0 1 0-.708l6-6a.5.5 0 0 1 .708 0z"
      />
    </symbol>
    <symbol viewBox="0 0 16 16" id="icon-circle">
      <circle cx="8" cy="8" r="6" />
    </symbol>
    <symbol viewBox="0 0 12 12" id="icon-double-left-arrow">
      <path
        fill="none"
        stroke="currentColor"
        d="M5.33329 10.6667L0.666627 6.00008L5.33329 1.33341M10.6666 10.6667L5.99996 6.00008L10.6666 1.33341"
        strokeLinecap="round"
        strokeLinejoin="round"
      />
    </symbol>
    <symbol viewBox="0 0 12 12" id="icon-double-right-arrow">
      <path
        fill="none"
        stroke="currentColor"
        d="M6.66668 0.833252L11.3333 5.49992L6.66668 10.1666M1.33334 0.833252L6.00001 5.49992L1.33334 10.1666"
        strokeLinecap="round"
        strokeLinejoin="round"
      />
    </symbol>

    <symbol viewBox="0 0 18 18" id="icon-download">
      <path
        d="M16.5,12h-1a.5.5,0,0,0-.5.5V15H3V12.5a.5.5,0,0,0-.5-.5h-1a.5.5,0,0,0-.5.5v4a.5.5,0,0,0,.5.5h15a.5.5,0,0,0,.5-.5v-4A.5.5,0,0,0,16.5,12Z"
      />
      <path
        d="M8.8245,13.428a.25.25,0,0,0,.35,0L12.9,9.6655a.391.391,0,0,0,.1-.263.4.4,0,0,0-.4-.4H10V1.5A.5.5,0,0,0,9.5,1h-1a.5.5,0,0,0-.5.5V9H5.4a.4.4,0,0,0-.4.4.391.391,0,0,0,.1.263Z"
      />
    </symbol>
    <symbol viewBox="0 0 22 22" id="icon-filter">
      <rect id="Canvas" fill="currentColor" opacity="0" width="22" height="22" />
      <path
        d="M18.944,2.5H3.056a.5.5,0,0,0-.387.817L9.52,11.685v8.041a.5.5,0,0,0,.8.4l1.934-1.294a.5.5,0,0,0,.222-.415V11.685l6.851-8.368A.5.5,0,0,0,18.944,2.5Z"
      />
    </symbol>
    <symbol viewBox="0 0 18 18" id="icon-home">
      <path
        stroke="{stroke}"
        d="M17.666,10.125,9.375,1.834a.53151.53151,0,0,0-.75,0L.334,10.125a.53051.53051,0,0,0,0,.75l.979.9785A.5.5,0,0,0,1.6665,12H2v4.5a.5.5,0,0,0,.5.5h4a.5.5,0,0,0,.5-.5v-5a.5.5,0,0,1,.5-.5h3a.5.5,0,0,1,.5.5v5a.5.5,0,0,0,.5.5h4a.5.5,0,0,0,.5-.5V12h.3335a.5.5,0,0,0,.3535-.1465l.979-.9785A.53051.53051,0,0,0,17.666,10.125Z"
      />
    </symbol>
    <symbol viewBox="0 0 84.544 64.762" id="icon-icechart">
      <g transform="translate(-17.952 -29.086)">
        <path
          fill="currentColor"
          d="m17.952 29.086h84.544v64.762h-84.544zm78.075 6.1022-71.667 0.06146 0.0864 52.496h71.581zm-65.707 40.275h8.0563v5.4923h-8.0563zm13.915 0h6.5908v5.4923h-6.5908zm37.47-1.29e-4h7.8979l-0.06569 5.4313-7.8322 0.06486zm-25.021-0.24406h19.04v4.5159h-19.04zm-26.893-7.8104h60.336v4.8821h-60.336zm-0.0617-3.631 8.5236-14.921 6.0445 10.395 15.625-19.711 15.368 19.956 6.0983-10.784 8.5856 15.156h-5.9395l-2.5146-4.4229-2.7941 4.4229h-7.0652l-11.56-13.423-12.147 13.424-7.0734-0.06209-2.6722-4.4939-2.577 4.5549-5.9032-0.09154z"
        />
      </g>
    </symbol>
    <symbol viewBox="0 0 22 22" id="icon-image">
      <path
        fill="currentColor"
        d="M20.5,3.5H1.5A.5.5,0,0,0,1,4V18a.5.5,0,0,0,.5.5h19A.5.5,0,0,0,21,18V4A.5.5,0,0,0,20.5,3.5ZM19.5,5V15.981l-3.036-3.036a1.247,1.247,0,0,0-1.765,0L12.784,14.86,8.07,10.147a1.246,1.246,0,0,0-1.764,0L2.5,13.952V5Z"
      />
    </symbol>
    <symbol viewBox="0 0 24 24" id="icon-menu">
      <path stroke="none" d="M0 0h24v24H0z" fill="none" />
      <path d="M4 6l16 0" />
      <path d="M4 12l16 0" />
      <path d="M4 18l16 0" />
    </symbol>
    <symbol viewBox="0 0 22 22" id="icon-more">
      <circle fill="{stroke}" cx="11" cy="11" r="1" />
      <circle fill="{stroke}" cx="17" cy="11" r="1" />
      <circle fill="{stroke}" cx="5" cy="11" r="1" />
    </symbol>
    <symbol viewBox="0 0 18 18" id="icon-search-globe">
      <path
        d="M3.573,6.8845C3.05,4.991,4.4,4.176,4.267,2.558A8.03648,8.03648,0,0,0,1,9c0,4.556,3.9715,7.271,6.777,7.866a3.44943,3.44943,0,0,0,.523.084c1-2.55-.8865-5.3945-2.1315-7.247C5.131,8.159,4.189,9.113,3.573,6.8845Z"
      />
      <path
        d="M14.5915,8.979a3.01073,3.01073,0,0,0-2.5475,2.4615,2.976,2.976,0,0,0,.9675,2.742L11.135,17.11a.25.25,0,0,0,.07538.34543l.00012.00007.421.27a.25.25,0,0,0,.34542-.07538L11.977,17.65l1.873-2.9275a3,3,0,1,0,.7415-5.7435ZM15,13.95a2,2,0,1,1,2-2A2,2,0,0,1,15,13.95Z"
      />
      <path
        d="M16.0315,5.259c-.096-.1745-.2-.342-.31-.509-.0185.0095-.035.022-.0545.031-.625.2915-.7115.3775-1,0a.788.788,0,0,1,.1735-1.163A7.992,7.992,0,0,0,9.013,1.0075c1.0135.014,2.223.765,1.6065,1.9645.093-.1905-2.0135-.645-2.3-.645-.386,0,.7875-1.4445.68-1.3195A8.04239,8.04239,0,0,0,5.692,1.719c.547.353,1.1555.23,1.772.382a1.50711,1.50711,0,0,1,.55.226,1.85559,1.85559,0,0,0-.55-.226c-.909-.1055.44,2.3885.3885,2.057a1.15173,1.15173,0,0,1,2.2825-.0735A1.871,1.871,0,0,1,9.7165,5.217c-.7055.927-.85,2.577-1.2,2.155-3.2955-1.35-2.9325.4355-1.85,1.629,1.732,1.91.853.196,3.121,1.196a13.23338,13.23338,0,0,0,1.458.525A4.01149,4.01149,0,0,1,14.512,7.9875c.116-.015.23-.017.3445-.0225-.0105-.161-.018-.3345-.0225-.5315a2.883,2.883,0,0,1,.833-2A1.55013,1.55013,0,0,1,16.0315,5.259Z"
      />
    </symbol>
    <symbol viewBox="0 0 18 18" id="icon-subtract">
      <path
        d="M14.5,9.5a.5.5,0,0,1-.5.5h-10A.5.5,0,0,1,4,9.5v-1A.5.5,0,0,1,4.5,8h9a.5.5,0,0,1,.5.5Z"
      />
    </symbol>
    <symbol
      viewBox="0 0 24 24"
      id="icon-x"
      strokeWidth="1"
      strokeLinecap="square"
      strokeLinejoin="round"
    >
      <path stroke="none" d="M0 0h24v24H0z" fill="none" />
      <path stroke="currentColor" d="M18 6l-12 12" />
      <path stroke="currentColor" d="M6 6l12 12" />
    </symbol>
    <symbol viewBox="0 0 21.623 21.624" id="icon-arctic-globe">
      <g transform="translate(-47.694 -72.587)">
        <ellipse cx="58.506" cy="83.399" rx="10.812" ry="10.812" fill="transparent" />
        <path
          d="m58.506 72.587c-5.9672 0-10.812 4.8444-10.812 10.812 0 5.9673 4.8444 10.812 10.812 10.812 5.9564 0 10.792-4.8273 10.81-10.78 0.0011-0.01066 0.0016-0.02137 0.0017-0.03211 1.7e-5 -0.0095-3.93e-4 -0.01916-0.0012-0.02872-0.01577-5.954-4.8529-10.783-10.81-10.783zm0 0.6487c0.18714 0 0.37284 0.0056 0.55747 0.01564 0.0968 0.08917-0.07923 0.31484 0.08784 0.6542 1.135-0.02554-0.10228 0.59493-0.61871 0.41558-0.56358-0.38444-0.96937 0.51563-1.2615 0.22172 0.72392-0.27565-0.0306-0.82634 0.43584-1.0567-0.38959 0.08536-1.1303 0.54274-1.0423 1.022-0.40623 0.3997-1.5167 0.75373-1.0706 1.324-0.7042 0.03361-0.47485 0.60794-1.0871 0.69009-0.54198 0.50358-0.1231-0.14302-0.4067-0.38939-0.20673-0.12982-1.471 1.0812-0.89365-0.02955-0.07493-0.51375 1.6795-1.6712 0.91519-1.275-0.60006 0.542-1.3727 1.2094-1.3405 2.0314-0.48289-0.22667 0.06641 0.5141-0.12459 0.79652-0.2039 0.92666-1.2242 1.2964-1.8836 1.8274 0.77843-0.12647-0.37243 0.28529-0.51862 0.72261-0.75204 0.5164-1.6969 0.95712-1.7531 2.0728-0.04678 0.10914-0.08828 0.2195-0.12501 0.33026 0.4027-5.2468 4.7788-9.3737 10.13-9.3737zm1.0279 0.05153c0.11401 0.01142 0.22669 0.02709 0.33955 0.04224-0.14538 0.03303-0.27516 0.09702-0.37123 0.21623-0.03386-0.11001-0.01707-0.19348 0.03168-0.25847zm-1.9841 2.7181c0.47187 0.0059 1.0258 0.10542 1.3417 0.60647-1.0044-0.12351-0.29678 0.38071 0.2893 0.32098-0.47937-0.51357 0.48466-1.027 0.53593-0.55072-0.02366 0.48286 1.2705 0.41408 0.58113 0.9549 0.26784 0.43391-0.7044 1.7331 0.32224 1.1897-0.16656-0.85555 0.29197-0.4305 0.90421-0.13388 0.43044 0.12016 0.8049 0.27664 0.67573 0.53003 0.33656-0.12737-0.02323 0.61738 0.82143 0.48231 0.51372 0.64552-1.0168 0.88783-1.2818-0.05322-0.68729-0.13247 0.64128 1.2956 1.1428 1.0503 0.40567-0.77109 0.46783 0.07835 0.59337 0.50764-0.65288 0.31044 0.42458 0.43962 0.1022 0.58493-0.9969 0.18398-1.7417 0.94052-1.5056 2.009 0.51839 0.08547 0.10024 1.4026 0.42233 2.0099 0.42304 0.96414 1.0079-0.87649 0.75217 0.26227 0.437 0.4875 0.06682 0.84827-0.0021 1.4047-0.17344 0.10384-1.0388-0.4454-1.1492-0.77202-0.15453-0.46834-0.29751-0.13924-0.47723 0.0773-0.42354 0.29638 0.4699 0.69648-0.19723 1.0267-0.18795 0.75019 0.74148 0.72955 0.62209-0.02619 0.17479-0.15084 0.17438 1.232 0.6601 0.34969 1.2192-0.83003-0.95235 0.73931 0.14275 0.58028 0.76559 0.25511 0.1043 0.8569-0.46287 0.88395-0.30506 0.17794-0.19717 1.5602 0.4616 1.0719-0.0247 0.38901-0.44488 1.3902-0.88647 1.4245-0.36647-0.13058 0.09002 0.24997-0.26184 0.4084-0.23168 0.21602-0.41562 0.68813-0.33406 0.9473-0.90641 0.2647-1.8642 0.40924-2.8566 0.40924-2.0512 0-3.9581-0.60835-5.5545-1.6517-0.22706-0.28748-0.30223-0.30007-0.26563-0.17992-0.2737-0.19148-0.53759-0.39595-0.7906-0.61281 0.02581-0.03783-0.1829-0.30643-0.25931-0.37419-0.19512-0.31381-1.2279-1.19-0.84466-1.1872 0.55603 1.2078 0.24951-0.22671-0.25635-0.54312 0.07417 0.5458-0.14265 0.28363-0.36531-0.12121-0.81768-0.75888-0.17872-0.05745 0.11698 0.48484-0.65151-0.89469-1.1615-1.899-1.4946-2.9817 0.02376-0.051 0.0521-0.10134 0.09122-0.14993 0.51463 0.88859 1.2451 1.3947 1.2573 2.5028 0.41993 0.68137 0.25071-0.33872 0.49666-0.40037 0.63744 0.55159 0.80862-0.02666 1.3971-0.04603 0.53792 0.50982 0.35044-0.2421 0.81848-0.02955 0.21761 0.31305 1.2404 0.84968 1.3312 0.23102-0.25736 0.08176-0.74756-0.32137-0.39023-0.70065-0.50279-0.62511 0.10195-0.02647 0.30239 0.2534-0.14998-0.39193 0.47945-0.0046 0.68375-0.0929-1.0924 0.24596 0.376 1.5303 0.53889 0.81891-0.3013-0.48635-0.12988-0.75543-0.12923-1.3447-0.68309-0.32514 0.1668-2.2719-0.76146-1.6104-0.05159-0.39292 0.06311-1.2132-0.33702-1.3781 0.29609-0.52762 0.4132 0.67471 0.70825 0.95912 0.36954 0.25679 0.44593-0.70562 0.92406-0.68672 0.0082-0.50696-0.11091-0.93666 0.03168-1.4989 0.08932-0.64361-0.43942-1.9436-1.1318-0.90802-0.36288 1.178-0.22452-0.76856 0.52876-0.46246 0.18516-0.68026 0.36386 0.89332 0.99796 0.155 0.53839-0.37497 0.1474 0.07709 0.3404 0.43036 0.67915 0.41096 0.13682 1.3031 0.05912 1.8422-0.21705 0.79625-0.39164 2.0813 0.49455 2.5188 0.4131-0.65229 0.71252-1.2287 1.3624-1.6344 0.91355-0.26588 0.94618-0.99385 0.95446-1.7438 0.12104-0.44506-0.17254-0.85654-0.20525-1.2995 0.3749-0.69817-0.79278-1.1949-1.4034-0.83326-0.14266-0.51011-1.5231-1.0338-1.601-0.416 0.07721-0.45523-0.318-0.48876-0.72176-0.22046 0.22722-0.20656-0.2818-0.14364-0.07306-0.33449 0.32318 0.28917 0.83399-0.05761 0.19005-0.34167-0.39886-0.52044-0.94715 0.46913-0.53509 0.79821 0.5643 0.5902-0.27638 0.25852-0.51271 0.60056 0.23151 0.42208-0.765 0.4526-0.31759 0.24791 0.09039-0.35127 1.0265-0.64678 0.40839-1.0119 0.45354-0.44502 0.38467-1.2681-0.40375-0.82693 0.22626 0.22696-0.56322 0.87348-0.38854 0.42825 0.50015-0.58918-0.1305-1.309 0.54227-1.8034 0.4292-0.31117 1.3082-1.5949 0.48568-1.5622 0.04518-0.80422 1.7187-0.21632 2.292-0.82524 0.12711-0.0073 0.2756-0.01594 0.43289-0.01395zm3.0099 3.4982c-0.18513-0.0029-0.02373 0.5331 0.09544 0.77414 0.3444 0.13981 0.28407-0.37793 0.21961-0.56044-0.15312-0.15156-0.25335-0.21272-0.31506-0.2137zm-0.09544 1.4452c-0.40939 0.03237-0.38194 1.1763 0.38221 0.98108l0.0849 0.0038c-0.26742-0.3994 0.15899-0.23537 0.09164-0.57015-0.68729-0.04166 0.15016-0.44188-0.35771-0.35349-0.07547-0.0479-0.14254-0.06586-0.20103-0.06124zm6.6728 0.84382c-0.07023 0.87378 1.3298-0.17526 0.92912 0.90633-0.10621 0.31451-0.1775-0.14409-0.26142-0.20568-0.49017 0.51481-0.72664-0.28772-0.6677-0.70065zm-12.402 1.3523c0.04275 0.0088-0.05788 0.24839 0.10516 0.19216-0.49754 0.16235 0.5067 0.55976-0.20187 0.68334-0.63528-0.37577-0.82869 0.70969-1.3143 0.90042 0.16644 0.72212-0.54038 0.35562-0.67784 0.66095v-8.18e-4l-0.02408 0.06377c-0.25781-0.24968 0.03056-0.83695-0.23102-1.2746-0.42775-0.97753 0.54794-1.3959 1.3198-1.0237-0.58818 0.27445 0.36884 0.4714-0.25678 0.60478 0.63838 0.48526 0.46296-0.70677 1.0955-0.62548 0.11679-0.141 0.16597-0.18472 0.1854-0.18076zm12.578 0.70783c0.32675 0.23189-0.50983 1.1634-0.48357 1.6898-0.24319 0.40806-0.33709-0.5105-0.34927-0.63646 0.53392-0.11257 0.33589-0.791 0.83283-1.0533zm-3.3077 0.40249c0.39236 0.05492 0.68676 1.1703 0.07052 1.4414-0.08649-0.04376-0.23936 0.25574-0.11065-0.02956 0.39945-0.20152-0.28276-0.91183-0.03928-1.4085 0.02679-0.0064 0.05325-0.0071 0.0794-0.0033zm-3.9669 0.87719c-0.08274 0.0073-0.18748 0.04036-0.3159 0.1077-0.70154-0.08727-0.48328 0.46311-0.30281 0.69432 0.71618 0.3668 1.1978-0.85245 0.61871-0.80201zm7.6057 0.16006c0.65856 0.57628-0.44936 1.7964-0.9249 2.4069 0.02463 0.49222-1.0744 1.5265-1.2632 0.85649-0.68851 0.18838-1.4003 1.285-2.1691 1.7278-0.31137 0.11413 0.38653-0.33131 0.36616-0.38094 0.25452-0.71622 0.39266-1.4088 0.94433-1.9909 0.25867-0.41928-0.09535 1.1792 0.48441 0.49202-0.80038-0.58818 1.3726-1.0485 0.37672-0.21201 0.47855 0.5637 0.51138-0.63001 0.56381-1.0178-0.33112 0.21515-1.6253 0.18008-0.53847 0.04012 0.47355-0.47018 1.3526 0.49616 1.6636-0.51356-0.01524-0.80806 0.64661-0.82084 0.49666-1.4081z"
          fill="currentColor"
          stroke-width=".045192"
        />
      </g>
    </symbol>
    <symbol viewBox="0 0 21.623 21.624" id="icon-antarctic-globe">
      <g transform="translate(-23.476 -71.782)">
        <ellipse cx="34.287" cy="82.594" rx="10.812" ry="10.812" fill="transparent" />
        <path
          d="m26.754 74.835c-4.2818 4.1581-4.3823 11.01-0.22424 15.292 4.1581 4.2818 11.01 4.3823 15.292 0.22423 4.2741-4.1505 4.3805-10.984 0.24539-15.268a0.32442 0.32442 0 0 0-0.02109-0.02432 0.32442 0.32442 0 0 0-0.02072-0.01993c-4.1603-4.261-10.996-4.3555-15.271-0.20418zm0.45202 0.46548c2.6677-2.5906 6.3865-3.4233 9.7314-2.5226 0.0089 0.01087 0.0184 0.02021 0.02702 0.03142 0.51624 0.69199 1.5138 0.83384 2.3799 0.96515 0.80338 0.46154 1.558 1.0386 2.2359 1.7368 2.9462 3.0339 3.6202 7.4272 2.0547 11.084-0.08532-0.0015-0.17948-0.02094-0.28377-0.06241-0.5437 0.86421-0.76921 1.9767-1.5698 2.688-0.49099 0.42108-1.5035 0.58569-1.766 0.99188-0.35499 0.1262-1.059 0.99281-0.93955 1.3475-3.8964 2.0846-8.8468 1.4447-12.081-1.8853-2.6634-2.7427-3.4685-6.5964-2.4423-10.013 0.28842 0.28303 0.57076 0.70816 1.0131 0.84799 0.58199 0.56954 1.7473 0.17223 1.8844-0.65048 0.19188-1.0608-0.37385 0.40338-0.84171-0.15064 0.02765-0.65236-0.61249-0.15036-0.47848-0.61703-0.4279-0.51579 0.01163-1.2081-0.15036-1.6841 0.16035-0.38496 0.27628-0.8142 0.42522-1.2308 0.24767-0.30341 0.51306-0.59714 0.80092-0.87667zm1.674 4.0807c-0.05412 0.03613-0.1302 0.38824-0.08574 0.57082 0.46741 0.1537 0.23404 1.1063 0.91356 0.9547-0.3669 0.22892 0.06157 1.0663 0.46934 0.7307-0.04615 0.13746 0.2783 0.5794 0.05148 0.82794-0.46294 0.49548-0.0077 1.8054 0.49931 1.0302 0.12549 0.3976 0.08639 1.4184 0.57172 1.5923 0.685 0.38915 1.6116 0.63263 2.3455 0.27128 0.41133 0.53074 1.7439-0.14135 1.5607 0.5612 0.1225 0.34596-0.58478 1.2473 0.4442 1.1008 0.86924 0.18763 1.7018-0.08299 2.4694-0.47372-0.07613-0.0366 0.27822-0.11057 0.19587-0.15786 0.42129-0.53685 0.57685-1.2215 1.15-1.7244-0.12796-0.69329 0.57699-0.83106 0.46941-1.4945-0.39031-0.39677 0.06147-1.439-0.79537-1.7619-0.19899-0.54979-0.10691-1.563-0.48521-2.2362-0.40998-0.46201-1.2955-0.20265-1.6435-0.73926-0.70971 0.02745-1.2747-0.55919-1.9742-0.51348-0.82789-0.22297-1.5813 0.03721-2.0845 0.68758-0.72223 0.51887 0.0466 1.8701-1.1692 2.0181-0.6546 0.39629-1.0416-0.02429-1.6798-0.26361-0.41935-0.34222-1.0315-0.2625-0.74204-0.85629-0.15289-0.77692-0.3525 0.42652-0.43782 0.25677 0.01429-0.31048-0.01062-0.4026-0.0431-0.38092zm5.9736 12.641c-0.23286 0.25108 0.40326 0.28224 0.80929 0.4047 0.55284-0.0675-0.39834-0.14922-0.09348-0.38852-0.46813-0.19726 1.3434-0.54799 0.92876-1.0191-0.44263-0.24914-0.83034 0.66606-1.3308 0.79005-0.15977 0.08518-0.26008 0.15491-0.31379 0.21288zm4.4793-1.9038c-0.11935 0.09197-0.15282 0.23716 0.06747 0.43026 0.15105 0.03969 0.15617-0.10381 0.17535-0.20264 0.69764-0.37398 0.01979-0.42991-0.24284-0.22758z"
          fill="currentColor"
          stroke-width=".045202"
        />
      </g>
    </symbol>
    <symbol viewBox="0 0 21.623 21.624" id="icon-met-globe">
      <g transform="translate(-71.913 -72.587)">
        <ellipse cx="82.725" cy="83.399" rx="10.812" ry="10.812" fill="transparent" />
        <path
          d="m82.123 72.587c-1.2271 0.25765-2.3958 1.2955-3.322 2.985-0.2761 0.50362-0.52606 1.0626-0.74638 1.6651 1.2422 0.31998 2.6166 0.51943 4.0684 0.56273zm1.2032 0v5.2128c1.4518-0.0433 2.8262-0.24275 4.0684-0.56273-0.22031-0.60249-0.47028-1.1614-0.74638-1.6651-0.92622-1.6895-2.0949-2.7274-3.322-2.985zm-4.3105 0.58775c-1.6151 0.58999-3.0498 1.5549-4.2005 2.79 0.03931 0.02247 0.07691 0.04532 0.11703 0.06751 0.58609 0.32416 1.2466 0.61273 1.9651 0.8592 0.24644-0.68199 0.53002-1.3201 0.84931-1.9025 0.37321-0.68077 0.7988-1.2933 1.269-1.8142zm7.4177 0c0.47023 0.52098 0.89581 1.1335 1.269 1.8142 0.3193 0.58243 0.60284 1.2208 0.84884 1.903 0.71878-0.24651 1.3793-0.53543 1.9656-0.85967 0.04012-0.02218 0.07772-0.04503 0.11703-0.06751-1.1507-1.2351-2.5853-2.2-4.2005-2.79zm-12.4 3.7304c-1.2307 1.6607-2.001 3.6868-2.1207 5.8893h3.9241c0.04651-1.6981 0.28809-3.3042 0.69091-4.7501-0.78648-0.26896-1.5166-0.58836-2.1761-0.95314-0.10857-0.06005-0.21341-0.12316-0.3182-0.186zm17.382 0c-0.10479 0.06284-0.20963 0.12596-0.3182 0.186-0.66002 0.36504-1.3909 0.6846-2.178 0.95362 0.40162 1.446 0.64214 3.0521 0.68856 4.7497h3.9283c-0.1197-2.2025-0.89-4.2286-2.1207-5.8893zm-13.731 1.4861c-0.36762 1.3287-0.59666 2.8207-0.64344 4.4032h5.0817v-3.789c-1.5776-0.04356-3.0751-0.25758-4.4383-0.61419zm10.08 0c-1.3632 0.35646-2.8608 0.57017-4.4383 0.61371v3.7894h5.0817c-0.04677-1.5824-0.27582-3.0744-0.64344-4.4032zm-15.852 5.6117c0.1197 2.2025 0.89 4.2286 2.1207 5.8893 0.10479-0.06284 0.20963-0.12596 0.3182-0.186 0.65952-0.36477 1.3899-0.68425 2.1761-0.95362-0.40275-1.4458-0.64442-3.0518-0.69091-4.7497zm5.1283 0c0.04675 1.5817 0.27565 3.073 0.64297 4.4013 1.3633-0.35746 2.8607-0.57248 4.4388-0.61608v-3.7852zm6.285 0v3.7852c1.578 0.04359 3.0755 0.25862 4.4388 0.61608 0.36732-1.3283 0.59621-2.8196 0.64297-4.4013zm6.2821 0c-0.04644 1.6974-0.28689 3.3033-0.68856 4.7492 0.78676 0.26946 1.5176 0.5891 2.1776 0.95409 0.10857 0.06005 0.21341 0.12316 0.3182 0.186 1.2307-1.6607 2.001-3.6868 2.1207-5.8893zm-7.4854 4.9947c-1.4518 0.0433-2.8262 0.24275-4.0684 0.56273 0.22031 0.60249 0.47028 1.1614 0.74638 1.6651 0.92622 1.6895 2.0949 2.7274 3.322 2.985zm1.2032 0v5.2128c1.2271-0.25765 2.3958-1.2955 3.322-2.985 0.27609-0.50362 0.52606-1.0626 0.74638-1.6651-1.2422-0.31998-2.6166-0.51943-4.0684-0.56273zm5.2251 0.90782c-0.24605 0.68222-0.52953 1.3205-0.84884 1.903-0.37321 0.68077-0.79879 1.2933-1.269 1.8142 1.6151-0.58999 3.0498-1.5549 4.2005-2.79-0.03931-0.02247-0.07692-0.04532-0.11703-0.06751-0.58624-0.32424-1.2468-0.61316-1.9656-0.85967zm-11.654 4.72e-4c-0.71855 0.24647-1.379 0.53504-1.9651 0.8592-0.04012 0.02218-0.07772 0.04504-0.11703 0.06751 1.1507 1.2351 2.5853 2.2 4.2005 2.79-0.47023-0.52098-0.89581-1.1335-1.269-1.8142-0.31929-0.58241-0.60286-1.2205-0.84931-1.9025z"
          fill="currentColor"
        />
      </g>
    </symbol>
    <symbol xmlns="http://www.w3.org/2000/svg" id="icon-hamburger"  viewBox="0 0 18 18" >
      <rect fill="currentColor" height="2" rx="0.5" width="14" x="2" y="8" />
      <rect fill="currentColor" height="2" rx="0.5" width="14" x="2" y="3" />
      <rect fill="currentColor" height="2" rx="0.5" width="14" x="2" y="13" />
    </symbol>
    <symbol xmlns="http://www.w3.org/2000/svg" id="icon-navigate"  viewBox="0 0 18 18" >
      <path class="currentColor" d="M5,3l9,9H9L5,16ZM4.25,1.027a.25.25,0,0,0-.25.25v16.39a.25.25,0,0,0,.25.25.245.245,0,0,0,.175-.0735L9.262,13h6.5a.25.25,0,0,0,.177-.427L4.427,1.1A.245.245,0,0,0,4.25,1.027Z" />
    </symbol>
     <symbol xmlns="http://www.w3.org/2000/svg" id="icon-no-navigate"  viewBox="0 0 18 18" >
      <path class="currentColor" d="M5,3l9,9H9L5,16ZM4.25,1.027a.25.25,0,0,0-.25.25v16.39a.25.25,0,0,0,.25.25.245.245,0,0,0,.175-.0735L9.262,13h6.5a.25.25,0,0,0,.177-.427L4.427,1.1A.245.245,0,0,0,4.25,1.027Z" />
      <line x1="0.635231" y1="17.658" x2="15.6352" y2="1.65803" stroke="currentColor"/>
    </symbol>
    <symbol xmlns="http://www.w3.org/2000/svg"  viewBox="0 0 18 18" id="icon-add-layer">
      <path class="currentColor" d="m9 1.1641a0.49 0.49 0 0 0-0.21289 0.048828l-7.3438 3.7363c-0.1205 0.0615-0.1205 0.16311 0 0.22461l3.7031 1.8906-3.7031 1.8887c-0.1205 0.0615-0.1205 0.16116 0 0.22266l3.6992 1.8828-3.6992 1.8945c-0.1205 0.0615-0.1205 0.16116 0 0.22266l7.3438 3.7383a0.4855 0.4855 0 0 0 0.11523 0.027344c-0.35911-0.47745-0.62899-0.9849-0.81836-1.5078l-4.6562-2.3691 2.8164-1.4434 1.5898 0.80859c0.47282-2.6107 2.6715-4.8711 5.8027-4.8711 0.064227 0 0.12768 0.0038172 0.19141 0.0058593l-0.98828-0.50391 3.7168-1.8848c0.1205-0.0615 0.1205-0.16116 0-0.22266l-7.3438-3.7402a0.49 0.49 0 0 0-0.21289-0.048828zm0 1.0625 5.5723 2.8379-2.834 1.4355-2.5254-1.2852a0.468 0.468 0 0 0-0.42578 0l-2.5371 1.291-2.8223-1.4414 5.5723-2.8379z"/>
      <path class="currentColor" d="m13.55 9.0527a4.45 4.45 0 1 0 4.45 4.45 4.45 4.45 0 0 0-4.45-4.45zm2.45 5.2h-1.7v1.7a0.25 0.25 0 0 1-0.25 0.25h-1a0.25 0.25 0 0 1-0.25-0.25v-1.7h-1.7a0.25 0.25 0 0 1-0.25-0.25v-1a0.25 0.25 0 0 1 0.25-0.25h1.7v-1.7a0.25 0.25 0 0 1 0.25-0.25h1a0.25 0.25 0 0 1 0.25 0.25v1.7h1.7a0.25 0.25 0 0 1 0.25 0.25v1a0.25 0.25 0 0 1-0.25 0.25z" />
    </symbol>
    <symbol xmlns="http://www.w3.org/2000/svg"  viewBox="0 0 18 18" id="icon-zoom-to">
      <rect  x="1" y="10" width="1" height="3"/>
      <rect x="1" y="5" width="1" height="3"/>
      <path d="M2,16V15H1v1.5555A.4445.4445,0,0,0,1.4445,17H3V16Z"/>
      <rect  x="5" y="16" width="3" height="1"/>
      <rect  x="16" y="5" width="1" height="3"/>
      <path  d="M16.5555,1H15V2h1V3h1V1.4445A.4445.4445,0,0,0,16.5555,1Z"/>
      <rect  x="10" y="1" width="3" height="1"/>
      <rect  x="5" y="1" width="3" height="1"/>
      <path  d="M3,1H1.5a.5.5,0,0,0-.5.5V3H2V2H3Z"/>
      <path   d="m17.208 15.743-2.5156-2.5156c2.6213-4.32-3.1024-8.7899-6.6634-5.2291-3.561 3.5608 0.90849 9.2848 5.2287 6.6637l2.5156 2.5156c0.38246 0.42804 1.0522 0.42804 1.4347 0 0.14994-0.15244 0.24725-0.34881 0.27772-0.56045 0.05141-0.31895-0.05165-0.64337-0.27771-0.87417zm-8.7442-4.6889c-2.14e-4 -2.3349 2.8225-3.5041 4.4735-1.8534 1.651 1.6507 0.48232 4.4736-1.8526 4.4738h-1.9e-4c-1.4473 1.7e-5 -2.6206-1.1732-2.6207-2.6204z"/>
    </symbol>
    <symbol xmlns="http://www.w3.org/2000/svg" id="icon-properties"  viewBox="0 0 22 22">
      <path class="currentColor" d="M19,4.5H9.394a2.748,2.748,0,0,0-5.288,0H3a.5.5,0,0,0-.5.5v.5A.5.5,0,0,0,3,6H4.106A2.748,2.748,0,0,0,9.394,6H19a.5.5,0,0,0,.5-.5V5A.5.5,0,0,0,19,4.5ZM6.75,6.6A1.35,1.35,0,1,1,8.1,5.25,1.35,1.35,0,0,1,6.75,6.6Z" />
      <path class="currentColor" d="M19,10H17.894a2.748,2.748,0,0,0-5.288,0H3a.5.5,0,0,0-.5.5V11a.5.5,0,0,0,.5.5h9.606a2.748,2.748,0,0,0,5.288,0H19a.5.5,0,0,0,.5-.5v-.5A.5.5,0,0,0,19,10Zm-3.75,2.1a1.35,1.35,0,1,1,1.35-1.35A1.35,1.35,0,0,1,15.25,12.1Z" />
      <path class="currentColor" d="M19,15.5H13.394a2.748,2.748,0,0,0-5.288,0H3a.5.5,0,0,0-.5.5v.5A.5.5,0,0,0,3,17H8.106a2.748,2.748,0,0,0,5.288,0H19a.5.5,0,0,0,.5-.5V16A.5.5,0,0,0,19,15.5Zm-8.25,2.1a1.35,1.35,0,1,1,1.35-1.35A1.35,1.35,0,0,1,10.75,17.6Z" />
    </symbol>
    <symbol xmlns="http://www.w3.org/2000/svg" id="icon-layers" viewBox="0 0 20 20">
      <path class="currentColor" d="M10.723,13.815,2.312,8.208a.25.25,0,0,1,0-.416l8.411-5.607a.5.5,0,0,1,.554,0l8.411,5.607a.25.25,0,0,1,0,.416l-8.411,5.607A.5.5,0,0,1,10.723,13.815Z" />
      <path class="currentColor" d="M16.85,11.9l-5.573,3.715a.5.5,0,0,1-.554,0L5.15,11.9,2.312,13.792a.25.25,0,0,0,0,.416l8.411,5.607a.5.5,0,0,0,.554,0l8.411-5.607a.25.25,0,0,0,0-.416Z" />
    </symbol>
    <symbol xmlns="http://www.w3.org/2000/svg" id="icon-page-share" viewBox="0 0 18 18">
      <path class="currentColor" d="M13.732,12.1135a2.22952,2.22952,0,0,0-1.5785.65L6.4855,9.597a2.18707,2.18707,0,0,0,0-1.1865l5.668-3.184a2.256,2.256,0,1,0-.5715-.9725L5.9225,7.4335a2.2365,2.2365,0,1,0-.02181,3.16281l.02181-.02181L11.582,13.738a2.236,2.236,0,1,0,2.15-1.6245Z" />    
    </symbol>
    <symbol xmlns="http://www.w3.org/2000/svg" id="icon-check-circle" viewBox="0 0 18 18" >
      <path class="currentColor" d="M9,1a8,8,0,1,0,8,8A8,8,0,0,0,9,1Zm5.333,4.54L8.009,13.6705a.603.603,0,0,1-.4375.2305H7.535a.6.6,0,0,1-.4245-.1755L3.218,9.829a.6.6,0,0,1-.00147-.84853L3.218,8.979l.663-.6625A.6.6,0,0,1,4.72953,8.315L4.731,8.3165,7.4,10.991l5.257-6.7545a.6.6,0,0,1,.8419-.10586L13.5,4.1315l.7275.5685A.6.6,0,0,1,14.333,5.54Z" />
    </symbol>
  </defs>
</svg>
