<svg xmlns="http://www.w3.org/2000/svg" version="1.1" xmlns:xlink="http://www.w3.org/1999/xlink" xmlns:svgjs="http://svgjs.dev/svgjs" width="32" height="32"><svg xmlns="http://www.w3.org/2000/svg" xml:space="preserve" width="32" height="32" viewBox="0 0 35.11 35.11">
<circle cx="50%" cy="50%" r="45%" fill="black" stroke="white"></circle>
  <path fill="#9ff35a" d="m6.21 11.56.04-.76.19-.4s.19-.03.2-.06c.03-.03.06-.05.11-.25.06-.2.1-.31-.04-.4-.13-.07-.24-.47-.24-.47l.09-.35c.03-.1.03-.17.14-.25.12-.08.4-.22.44-.23l.48-.06.41-.41.35-.48.23-.13.31.33v.86l.21.18s.47.11.54.09c.07-.03.64-.08.64-.08l.6-.4 1.01-.63.46-.25.53.23.1.36.18-.08.33.09c.03.01.17.14.26.15.09.02.26.04.35.07.08.03.26.05.28.07.03.02.13.15.17.15l.34-.12.9-.37-.1-.14.01-.2a.53.53 0 0 1 .13-.12c.03 0 .3-.03.33 0 .02.02.05.15.05.16l.16.2 1.31-.07 1.01-.27s.13-.11.14-.14a.98.98 0 0 1 .08-.21c.02-.02.1-.09.15-.07.04 0 .28.1.36.13.08.02 1.56 1.11 1.56 1.11s.3.06.35.04c.06 0 .58.3.58.3l1.3.83.71.19.5.1.18.14c.04.02.22.1.26.1.04 0 .26.08.32.1.07.01.28.08.33.1.04 0 .43.02.45.04 0 .02.45.47.45.47s.13.44.12.48c-.01.04 0 .38.02.41.01.04.09.16.09.16l.79.2.15.22.43.43s.02.24.05.3.26.32.27.48c0 .15.13.73.13.8 0 .08.2.1.12.23-.08.12-.2.27-.2.3l.08.62-.08.27.5.3c.02.02.27.23.23.29-.04.06-.32.25-.32.25l-.22.17s.54.08.56.12c0 .04.05.29.04.33l-.18.18-.02.67.4.85s.05.21 0 .31-.2.58-.2.58.14.38.12.44c0 .06-.17.3-.19.32l-.13.2c-.02.05-.04.32-.03.33 0 .02.02.15-.03.2s-.11.19-.15.24a.79.79 0 0 1-.21.16.87.87 0 0 0-.23.23l-.12.49-.01.25c0 .07-.08.34-.13.46-.06.11-.1.2-.14.23-.04.04-.2.09-.23.12l-.13.21c-.06.07-.26.24-.28.26l-.17.14s-.06.1-.14.19c-.08.08-.11.17-.17.22-.07.05-.11.06-.19.16-.07.11-.16.33-.22.43-.06.1-.06.13-.21.33a5.63 5.63 0 0 1-.41.5c-.09.08-.27.34-.4.43l-.5.38-.48.37-.4.15c-.04.03-.46.12-.46.12l-.28.46s0 .4-.01.43c-.02.03-.06.11-.2.1-.15-.01-.2.02-.35-.04l-.35-.18s-.12.96-.25.97c-.13 0-.2.02-.45.07a8.04 8.04 0 0 1-.69.11c-.09 0-.12-.04-.2-.08-.08-.04-.15-.2-.14-.35.01-.15.08-.31.08-.37s.03-.16-.07-.26a.48.48 0 0 0-.26-.16c-.06-.01-.88-.11-.92-.13l-.36-.08c-.1-.04-.48-.04-.6-.03l-.35.1c-.12.03-.5.15-.55.15-.05 0-.07-.04-.2-.06-.14-.02-.54-.02-.65-.1l-.32-.28c-.18-.16-.23-.17-.38-.25a1.52 1.52 0 0 0-.4-.13c-.16-.04-.22-.04-.42-.1a1.73 1.73 0 0 1-.53-.23l-.69-.5-.4-.09c-.1-.03-.35-.16-.39-.22-.04-.07-.07-.21-.09-.24a1.85 1.85 0 0 0-.3-.35c-.1-.05-.41-.16-.47-.2-.05-.03-.3-.08-.4-.14-.08-.06.15-.26.16-.28.01-.02-.01-.07-.04-.12l-.41-.61c-.04-.05-.11-.14-.18-.18-.07-.05-.26-.3-.36-.23-.1.05-.6 0-.65-.01-.06-.02-.35-.1-.36-.12v-.2a.34.34 0 0 0-.07-.13l-.2-.13-.29-.2c-.01 0-.06-.22-.13-.27-.06-.05-.42-.18-.5-.24a1.1 1.1 0 0 1-.23-.34l-.22-.4c-.08-.13-.2-.24-.29-.33-.1-.08-.17-.44-.17-.44s.01-.13 0-.16c-.02-.02-.28-.15-.31-.19-.03-.03-.03-.42-.05-.44-.02-.03-.13-.1-.13-.1s-.22-.15-.24-.2c-.01-.07.03-.14.03-.23 0-.08.07-.18.05-.27-.02-.1-.08-.26-.08-.26s.1-.25.06-.32c-.02-.06-.05-.27-.07-.3-.03-.05-.16-.06-.2-.13-.04-.07-.02-.4 0-.45a.7.7 0 0 1 .1-.17c.02-.03.13-1.16.13-1.16l.24-.33.11-.28.2-.12c.02-.02.7.05.7.05s.55-.13.56-.15V15l-.44-.09-.19.45s-.17.06-.2.05a.76.76 0 0 1-.21-.18 1.32 1.32 0 0 0-.1-.16l.02-.17.02-.65-.4-.63-.36-.04s-.06-.14-.13-.15c-.07 0-.18-.28-.2-.3-.01-.04-.72-1.2-.73-1.23a3.1 3.1 0 0 1 0-.34z"></path>
  <path fill="#9c3ce7" d="m8.67 15.3-.5.6-.48.27-.1.48-.16.72-.03.56s.09.39.09.44l.04.54c.01.1.13.5.14.56.02.06.16.4.17.46l.32.63c.02.06.2.33.2.33l.58.97.38.37.77.8.7.51.48.16.66.21.44.64s.45.47.48.53l.44.51.23.28s.56.23.61.27c.06.05.32.1.39.15l.37.2.17.21.4.1.3-.31.56-.23.57.15.32.26.24.16c.1.07.57.5.57.5s.14.03.24.1c.1.07.8.14.8.14l.47.08s.84.1.9.13l.48.23s.04.2.03.27l-.06.33.06.22.38.05s.26-.03.31-.09.49-.4.49-.4l.23-.18s.27-.27.4-.34l.56-.3a10.14 10.14 0 0 0 1.61-1.13c.09-.05.49-.4.49-.4l.42-.55c.09-.11.17-.3.27-.45.1-.16 1.43-1.78 1.43-1.78s.32-.22.37-.3c.04-.09.22-.57.2-.63 0-.06.02-.53.04-.6.01-.07.18-.25.18-.25l.4-.3s.14-.44.14-.59c0-.14.13-.3.16-.35.03-.06.06-.47.06-.56 0-.08.2-.62.2-.62l-.2-.6-.3-.9.15-.6-.3-.73s.05-.42 0-.47-.38-1.01-.38-1.09l-.08-.6s-.06-.32-.12-.4c-.05-.1-.17-.76-.23-.87-.05-.12-.3-.6-.4-.64a3.87 3.87 0 0 0-.35-.16c-.09-.03-.83-.12-.83-.12l-1.36-.24-1.03-1.3-.7-.8-.42-.86s-.85-.13-.93-.15c-.07-.03-.7-.05-.82-.1l-.57-.37a13.35 13.35 0 0 1-.81-.57c-.1-.09-.33-.26-.5-.26s-.06.41-.11.4a34.8 34.8 0 0 0-1.09-.06l-.57.02-.72.1-.18.07s-.05.05-.1.06c-.05.01-.3-.15-.3-.15l-.19.02s-.12.09-.12.11c0 .03-.08.14-.08.14l-.19.15-.45.46s-.34.27-.35.29c0 .02-.27.18-.27.18l-.15.26s-.34-.03-.43-.18c-.08-.14-.14-.42-.14-.42s-.2-.09-.22-.12c-.03-.04-.08-.1-.19-.14a2.68 2.68 0 0 1-.36-.14c-.04-.03-.17-.27-.18-.3-.02-.02-.03-.24-.06-.26a1.17 1.17 0 0 0-.31-.1c-.06 0-1.4.82-1.4.82s-.56.38-.59.38c-.03 0-.9.11-1.01.1-.12-.03-.48-.08-.52-.1-.05-.01-.13 0-.12-.18 0-.18.15-.62.18-.75s.06-.22.05-.25a.4.4 0 0 0-.31-.18c-.19 0-.49.56-.49.56l-.26.41c-.03.04-.13.15-.17.14-.05 0-.3-.06-.4-.03s-.52.32-.55.36c-.03.03-.04.8-.04.8l.27.54c.02.05.1.39.08.44 0 .05-.1.36-.17.44a7.6 7.6 0 0 1-.33.3l-.19.4.75 1.29.22.67.35.31 1.24.2.34.62z"></path>
  <path fill="#e67931" d="M14.33 10.08h-.77l-.32.07-.12.1a.76.76 0 0 0-.13.26c-.03.1-.07.28-.1.31l-.25.35c-.03.03-.1.04-.13.14s0 .37 0 .42l-.05.25c0 .05.23.41.23.41s.08 0 .11-.07a.43.43 0 0 0 .04-.22c0-.06-.05-.03-.02-.14.03-.1.19-.35.19-.35l.05-.08s.06-.03.06-.18-.02-.13.01-.25c.04-.11.05-.22.08-.27.03-.05.15-.2.19-.23a.47.47 0 0 1 .11-.09c.06-.03.35-.02.4-.03l.37-.1zm4.11 17.4c-.03 0-.03-.33-.1-.38-.06-.05-.21-.09-.24-.12a1.32 1.32 0 0 1-.09-.1l-.07-.09c-.01-.04.02-.05-.02-.07-.04-.01.1-.14.1-.14l.06-.05.2-.41-.36-.26s.02.07-.1.02c-.13-.06-.21-.3-.26-.32-.06-.03-.15-.11-.23-.04-.08.08-.1.1-.05.18.05.07.14.1.2.16.08.07.24.11.26.14l.08.23v.33s-.07.15-.17.14c-.1 0-.11-.01-.2-.06s-.17-.14-.23-.19c-.07-.05-.02-.03-.14-.1a.89.89 0 0 1-.25-.24c-.08-.1-.14-.16-.2-.16-.05-.01-.24-.27-.33-.23-.09.03-.26.15-.18.22.09.07.14.19.14.19s.11.27-.02.16c-.14-.1-.07-.13-.25-.07-.17.05-.23.06-.25.08l-.14.12-.14.1-.04.04-.16.19v.12l.23.03s.12-.04.14-.06c.03-.02.08-.05.12-.1.04-.04.11-.07.15-.1l.14-.07c.04-.02.07-.05.13-.05l.16.01c.05 0 .22.04.24.05l.65.25.2.17.15.13.14.11.2.2a.36.36 0 0 0 .17.05h.36zm7.75-12.94s.8-.24.83-.28c.02-.05.07-.25.13-.3.07-.05.21-.19.36-.28.16-.09.3-.22.3-.22s.15-.1.15-.14l-.09-.36.03-.1-.1-.23a6.69 6.69 0 0 1-.2-.34 4.82 4.82 0 0 0-.22-.21l-.96-.25-.2-.04-.25.04.09.52.12.17s.48-.15.61-.17c.14-.03.33 0 .33.02l.06.21.03.24-.07.29a1.5 1.5 0 0 1-.2.27l-.44.21-.38.4z" style="paint-order:stroke markers"></path>
  <path stroke="#fff" stroke-linecap="round" stroke-linejoin="round" stroke-width=".3" d="M43.89 42.17h-.09l-.02.2-.03.14.03.04v.08l.02.06-.03.12-.01.1-.02.1.08.12.03.1v.08l.03.1-.02.06.01.1.04.1v.03l.03.07-.04.05-.01.02.01.01.05.03h0l.08.05.07.12.06.13.02.04v.06l.02.02.02.07.03.05.06.02.03.04.02.04.01.06v.04l.04.06.04.03v.06l.05.13.06.03.06.02.03.03.13-.04.12.1.14.02.16.06.12.1.07.12.05.04.1.18h.1l.03.08-.04.07-.07.01h-.38l-.07.02-.05.18.04.05.05.07.11.04.02.04v.09l.06.04h.04l.04.04.01.05-.06.1.01.07-.04.1-.05.02-.02.1.07.07.07-.02.09-.1.06-.05.11.02.04.03.05.09.02.13v.06l.03.01h.03l.06-.27.06-.1.06.04.06.02.04.09.02.1.07.08.09-.01.06-.06.07-.1.13-.08.23.02.13.06.02.07-.05.09-.09.05-.06.07-.03.12-.13.08-.04.08-.06.07-.02.05-.05.1.13.01.1.05.06.19.07.06.06.05.09.01.08.07v.14l-.08.08-.08.06v.12l-.06.1-.14.1-.12.04-.05.13-.03.13-.09.15-.05.32.04.08-.01.15-.03.25.01.09v.05l-.23.1-.04.05v.17l.03.06-.02.06v.07l.03.08.02.05.03.1.04.15.08.12.1.05.03.06.02.05.13-.06.14-.01.04-.01.07-.03.06-.08.01-.08.05-.03h.09l.05.06.03.02.06-.05.08-.12.06-.02.08.01.06.02.06-.08.06-.05h.08l.1.03.01.09.04.1.03.14-.03.07-.05.05-.04.11v.11l.05.04.07.04.05.08v.05l-.03.11-.06.09-.07.04.01.07v.12l.03.1.02.12-.02.12.01.07.05.1.18.37v.1l.05.1.2.38.06.07.02.06v.21l-.01.16.06.04.09-.03.15-.07.1-.01.13.02h.1l.02.06.02.04v.07l.56.39.15.02.2.09.42.12.07.04.01.05.03.01h.04l.16.06.1.06.31.04.12.01.14-.1.2-.04.31-.16.12-.03.1.08.22.12.15.06.1-.12.1-.2.1-.07.12-.02.17-.03.16-.05.12.03.18.15.89.17h.2l.35.1.24.2.46.15.19.02.09-.11.3.02.07-.28.1-.03.1.05.05.1.12.18.16.35-.02.09.06.05.02.15-.04.1-.11.05.15.02.04.04v.07l-.05.09-.02.14-.08.07-.02.03.05.16-.01.06-.04.04-.03.06v.03l-.04.08-.05.06-.03.04-.06.03-.1.04-.09.03v.16l-.01.1-.06.11v.27l-.02.1-.01.07.02.05.07.11.03.03.12.01.14.05.08.04.07.05.04.04.07.03.14.01.13-.02h.05l.18-.03.19.02.13.03.12-.02.14.01.07.05.08.06.23.1.32.06.1.01.19-.07H59l.12.05.16.08h.08l.05-.08.1-.1.05-.04.06-.03.18-.04.1-.07.14-.03.1-.02.05.01.07.06.08.09.04.01h.05l.08-.06.05-.02h.05l.04.01h.06l.12.04.08.06.06.04.05-.01.05-.04.06-.05.05-.05.06-.05.08-.02.08-.06.04-.06.06-.05h.13l.12-.07.05-.04.09-.04.1-.05h.05l.07-.01.07-.07.07-.04.07-.05.07-.03h.06l.07-.03.06-.06.07-.05h.05l.1-.02.12-.07.12-.13.06-.07.14-.16.16-.25.07-.07.02-.02.01-.11-.06-.32v-.08l.03-.05.06-.05.08-.02.1.01.05.01h.04l.11-.04.08-.07.02-.18-.01-.1v-.12l.1-.14.13-.13.11-.1v-.27l.09-.18.05-.11.2-.31.2-.1.14-.1.07-.14.06-.03.14-.05.1-.03.1-.07.07-.42-.03-.08-.1-.18-.1-.26.03-.1.15-.1.07-.06.08-.16.12-.12.1-.13.3-.2.24-.08v-.04l-.06-.1-.03-.2.1-.15-.04-.33.05-.17.15-.19.09-.12.04-.17-.02-.05-.07-.05-.13-.03-.07.01-.12-.02-.12-.03-.08-.1-.05-.07-.02-.15.06-.32v-.14l-.06-.12-.04-.26.03-.09.13-.12.1-.04.08-.03.02-.22-.06-.09-.1-.1V48.32l-.15-.1-.09-.13v-.22l.02-.05v-.08l-.06-.03-.08-.01h-.13l-.06-.03-.1-.03-.13-.06-.08-.05-.08-.09-.13-.18-.12-.1-.12-.08-.1-.01-.05.01h-.11l-.05-.02-.07-.08-.14-.12-.1-.15-.03-.25.03-.16.1-.11.06-.2v-.22l.06-.13.13-.14.1-.04.01-.04-.06-.1-.07-.24-.08-.32-.06-.34-.06-.12-.04-.03-.04-.05-.09-.41-.07-.1-.02-.2-.03-.17v-.14l.04-.13.09-.02.02-.09v-.2l.02-.06.02-.08.01-.06-.05-.1-.15-.21-.17-.18-.1-.05-.3-.08-.17.12-.07.02-.06-.02-.08-.14-.04-.07h-.06l-.04.05-.05.07h-.11l-.04-.04-.06-.07-.03-.14-.03-.05-.07.01-.06.04-.05-.02-.06-.03-.15-.09h-.18l-.1-.06-.08-.06-.23-.01-.15-.04-.22-.01-.11.01-.02.04-.06.07-.09.08-.08.02-.05.03H60.77l-.02-.05-.01-.09-.07-.09-.05-.08.03-.11.03-.07-.13-.26-.02-.1v-.1l-.07-.09-.18-.04-.14.01-.2-.06h-.24l-.15.03-.04.04-.1.01h-.11l-.2-.05h-.06l-.07.02-.08-.02-.07-.04h-.13l-.1-.03-.09-.11-.16-.08-.18-.15-.1-.07-.27-.14-.09-.08-.31-.1-.18-.1h-.22l-.07.08-.06.02-.1.02-.04-.02-.2-.07-.16-.02-.18-.06-.12.04-.08.01-.1-.06-.12.02-.15.04-.24-.03-.19-.03-.15-.05-.17-.05-.12-.04-.1-.02-.08.02-.06.06-.1.06-.05.04-.06.04-.13.08-.14.03-.2.04-.22.05-.25.06-.12.09-.04.05-.07.11-.06.02-.06.07-.05.07-.04.05-.01.06-.02.07v.07l-.02.06-.07.08-.05.05-.06.05-.05.03-.05.05-.12.1-.05.08-.06.04-.06.05-.06.04-.1.06-.04.02-.04.04v.03l-.03.05-.01.06-.01.07v.07l-.02.09-.01.07v.11l-.01.07v.06l-.01.06-.05.03-.09.02-.07.03-.07.04-.06.06-.04.06-.04.06v.06l.03.03.02.03.01.02.03.03.03.04.04.03.05.06.02.06v.08l-.03.06-.07.08-.05.1h.01l.01.03.03.04.05.07v.04l-.02.1-.05.07-.02.06-.03.07-.02.05v.02l-.02.06-.02.07v.05l-.01.07-.05.15-.07.13-.01.07v.14l.04.14-.03.07-.02.1v.09l-.02.04-.02.05-.07.03-.07.03-.06.05-.06.03-.06.05-.06.05-.07.06-.07.01-.09.02h-.1l-.1.03-.1.01h-.06l-.18-.01h-.12l-.16.04-.17.04-.22.03-.25.1-.18.06-.13.08-.15.03-.18.04-.12.04-.25.08-.05-.08-.08-.14-.16-.04-.09-.09-.11-.09-.06-.1-.1-.05-.18-.1-.1-.07-.08.01-.08-.05-.1-.04-.14-.05-.2-.08-.13-.07-.09-.05-.05-.03h-.11l-.06-.04-.08-.03-.07-.06-.1-.04-.1-.04-.08-.07-.14-.14-.14-.06-.1-.05-.15-.1-.12-.07-.1-.1-.08-.07-.1-.11-.05-.03-.08.02-.06-.02-.1-.04-.09-.08-.1-.13-.09-.14-.06-.09h-.03l-.03.03-.02.01-.02.03-.03.01H44l-.04-.09-.01-.07.02-.07H44l-.03-.06.01-.05.04-.04h.04v-.04l-.05-.06-.07-.06-.06-.07-.03-.07v-.1l.02-.18z" fill="white" style="paint-order:stroke markers" transform="translate(-37.9 -31.62)"></path>
  
</svg><style>@media (prefers-color-scheme: light) { :root { filter: none; } }
@media (prefers-color-scheme: dark) { :root { filter: none; } }
</style></svg>